<?xml version="1.0" standalone="no"?>
<!DOCTYPE svg PUBLIC "-//W3C//DTD SVG 20010904//EN"
 "http://www.w3.org/TR/2001/REC-SVG-20010904/DTD/svg10.dtd">
<svg version="1.0" xmlns="http://www.w3.org/2000/svg"
 width="100.000000pt" height="100.000000pt" viewBox="0 0 100.000000 100.000000"
 preserveAspectRatio="xMidYMid meet">
<metadata>
Created by potrace 1.14, written by Peter Selinger 2001-2017
</metadata>
<g transform="translate(0.000000,100.000000) scale(0.100000,-0.100000)"
fill="#000000" stroke="none">
<path d="M629 911 c-54 -54 -25 -135 53 -148 32 -5 41 -1 68 25 40 41 41 83 1
123 -40 39 -82 39 -122 0z"/>
<path d="M305 742 c-81 -59 -96 -81 -75 -107 20 -24 38 -18 107 31 54 39 69
45 96 40 63 -12 63 -16 3 -113 -81 -130 -78 -144 48 -222 48 -29 86 -58 86
-66 0 -7 -7 -50 -15 -94 -9 -45 -13 -91 -10 -101 7 -22 37 -34 64 -25 24 7 31
27 47 129 3 22 7 43 9 46 2 3 6 26 10 50 l7 45 -62 55 -61 56 51 103 c36 71
50 110 46 126 -8 32 -66 65 -140 81 -129 29 -123 30 -211 -34z"/>
<path d="M660 577 c-21 -47 -21 -48 -3 -80 l19 -32 93 0 c79 0 96 3 105 17 8
13 8 23 0 35 -9 14 -28 19 -83 21 l-72 3 -19 42 -18 42 -22 -48z"/>
<path d="M323 390 c-17 -30 -18 -30 -104 -30 -93 0 -119 -11 -119 -50 0 -40
26 -50 128 -50 53 0 107 3 118 6 12 3 35 25 52 48 l30 42 -38 32 c-21 18 -41
32 -44 32 -3 0 -13 -13 -23 -30z"/>
</g>
</svg>
